<svg width="300" height="300" viewBox="0 0 300 300" fill="none" xmlns="http://www.w3.org/2000/svg">
<rect width="300" height="300" fill="#2B2B2B"/>
<path d="M144.321 124.125C145.76 123.918 150.112 124.055 151.757 124.057L169.676 124.176L200.832 124.086C203.361 124.094 205.94 124.114 208.436 124.15C211.976 124.259 215.87 123.571 219.058 125.476C222.803 127.714 224.556 130.954 224.505 135.272C224.471 138.241 224.477 141.277 224.466 144.245L224.455 163.45L224.458 193.55C224.457 198.747 224.563 204.088 224.354 209.275C224.132 214.794 220.118 218.7 214.923 220.08C212.171 220.474 205.997 220.18 202.899 220.178L176.475 220.103L155.354 220.054C152.3 220.054 149.247 220.055 146.195 220.032C143.234 220.01 141.308 219.583 138.896 217.834C133.14 213.661 134.587 205.142 134.604 198.89L134.62 177.276L134.614 148.068L134.613 138.947C134.614 137.211 134.543 135.324 134.699 133.604C135.182 128.268 139.173 124.843 144.321 124.125ZM154.614 213.857C173.733 213.842 193.084 214.08 212.216 214.003C213.669 213.998 215.813 213.236 216.799 212.245C218.384 210.794 218.411 208.538 218.405 206.478L218.268 189.795C213.758 189.754 209.247 189.746 204.737 189.772C183.531 189.831 161.964 190.047 140.776 189.859C140.703 194.229 140.659 198.599 140.642 202.97C140.635 205.266 140.514 207.676 140.834 209.94C141.279 213.085 144.44 214.044 147.197 213.996C149.666 213.953 152.145 213.848 154.614 213.857ZM140.655 183.695L194.161 183.707C202.202 183.708 210.353 183.632 218.381 183.729L218.312 182.31C218.436 174.895 218.246 167.5 218.289 160.097C211.569 159.904 204.505 160.014 197.745 160.003C178.724 160.12 159.703 160.1 140.683 159.942C140.562 167.508 140.523 176.117 140.655 183.695ZM140.697 153.856L175.655 153.818C189.575 153.729 203.495 153.748 217.415 153.874L218.092 153.872C218.412 153.535 218.418 152.989 218.392 152.547C218.15 148.382 218.449 144.254 218.341 140.066C218.254 136.688 219.207 130.628 214.263 130.3C211.153 130.164 207.919 130.271 204.792 130.296C199.024 130.348 193.256 130.368 187.488 130.356L160.083 130.296C154.954 130.27 148.944 130.103 143.87 130.265C142.869 130.64 141.66 131.124 141.184 132.165C140.278 134.151 140.569 150.698 140.697 153.856Z" fill="#37DBFF"/>
<path d="M159.872 193.735C164.369 192.945 168.659 195.939 169.468 200.432C170.278 204.926 167.303 209.229 162.814 210.058C158.295 210.893 153.959 207.896 153.145 203.374C152.33 198.852 155.346 194.53 159.872 193.735ZM162.09 204.257C163.412 203.851 164.156 202.451 163.752 201.128C163.347 199.805 161.948 199.06 160.624 199.464C159.3 199.868 158.554 201.269 158.959 202.594C159.364 203.918 160.766 204.663 162.09 204.257Z" fill="#37DBFF"/>
<path d="M192.674 198.39C194.622 197.982 196.533 199.228 196.945 201.175C197.358 203.123 196.117 205.036 194.171 205.454C192.218 205.874 190.295 204.627 189.881 202.673C189.466 200.718 190.718 198.798 192.674 198.39Z" fill="#37DBFF"/>
<path d="M183.158 198.409C185.083 198.022 186.965 199.245 187.393 201.161C187.821 203.078 186.639 204.986 184.732 205.455C183.461 205.768 182.121 205.368 181.228 204.411C180.336 203.454 180.031 202.09 180.432 200.844C180.832 199.598 181.875 198.667 183.158 198.409Z" fill="#37DBFF"/>
<path d="M202.069 198.394C203.978 197.922 205.911 199.078 206.398 200.983C206.886 202.888 205.747 204.831 203.846 205.335C201.922 205.845 199.951 204.689 199.457 202.761C198.963 200.832 200.136 198.871 202.069 198.394Z" fill="#37DBFF"/>
<path d="M160.258 163.707C164.824 163.169 168.962 166.432 169.504 170.996C170.046 175.561 166.788 179.702 162.224 180.249C157.654 180.797 153.505 177.533 152.962 172.962C152.419 168.391 155.687 164.246 160.258 163.707ZM161.795 174.473C163.14 174.203 164.028 172.915 163.801 171.563C163.575 170.21 162.315 169.281 160.956 169.465C160.038 169.589 159.26 170.203 158.926 171.068C158.593 171.933 158.756 172.91 159.353 173.619C159.951 174.328 160.886 174.655 161.795 174.473Z" fill="#37DBFF"/>
<path d="M182.884 168.242C184.819 167.795 186.756 168.981 187.237 170.909C187.718 172.836 186.564 174.793 184.645 175.307C183.374 175.647 182.019 175.274 181.1 174.333C180.181 173.392 179.841 172.029 180.21 170.766C180.58 169.504 181.602 168.539 182.884 168.242Z" fill="#37DBFF"/>
<path d="M192.562 168.383C194.492 167.938 196.418 169.143 196.863 171.073C197.307 173.004 196.103 174.93 194.172 175.374C192.242 175.819 190.317 174.614 189.872 172.684C189.427 170.754 190.631 168.828 192.562 168.383Z" fill="#37DBFF"/>
<path d="M202.132 168.381C203.39 168.109 204.697 168.535 205.553 169.495C206.409 170.456 206.681 171.804 206.266 173.022C205.85 174.24 204.811 175.14 203.547 175.377C201.628 175.738 199.776 174.49 199.389 172.577C199.003 170.664 200.225 168.794 202.132 168.381Z" fill="#37DBFF"/>
<path d="M160.295 133.696C164.827 133.135 168.967 136.327 169.577 140.853C170.187 145.38 167.039 149.553 162.519 150.211C159.552 150.643 156.583 149.447 154.742 147.081C152.901 144.714 152.474 141.542 153.623 138.772C154.772 136.003 157.32 134.065 160.295 133.696ZM161.495 144.447C162.51 144.383 163.382 143.702 163.689 142.733C163.996 141.763 163.675 140.704 162.882 140.068C162.423 139.7 161.848 139.508 161.26 139.528C160.372 139.557 159.569 140.062 159.158 140.85C158.747 141.637 158.792 142.585 159.276 143.33C159.76 144.075 160.608 144.502 161.495 144.447Z" fill="#37DBFF"/>
<path d="M202.062 138.372C204.019 137.847 206.031 139.005 206.56 140.961C207.09 142.917 205.936 144.932 203.981 145.465C202.02 146 199.998 144.842 199.467 142.88C198.937 140.919 200.099 138.899 202.062 138.372Z" fill="#37DBFF"/>
<path d="M183.024 138.345C184.958 137.854 186.928 139.006 187.449 140.932C187.969 142.858 186.847 144.846 184.928 145.395C183.662 145.757 182.298 145.409 181.36 144.484C180.422 143.559 180.054 142.2 180.399 140.929C180.744 139.657 181.747 138.67 183.024 138.345Z" fill="#37DBFF"/>
<path d="M192.603 138.357C194.535 137.92 196.46 139.115 196.927 141.04C197.393 142.966 196.228 144.909 194.31 145.405C193.043 145.732 191.697 145.351 190.79 144.408C189.882 143.466 189.553 142.106 189.929 140.853C190.304 139.599 191.326 138.645 192.603 138.357Z" fill="#37DBFF"/>
<path d="M116.25 80.1859C117.719 79.9134 122.14 80.0324 123.794 80.0992C137.922 80.6693 154.61 80.8916 166.883 88.7508C168.257 89.6312 169.905 91.8446 169.986 93.5192C169.912 97.7913 163.955 100.447 160.785 101.774C150.837 105.94 140.381 106.478 129.822 107.36C116.658 107.507 90.3767 106.98 79.6672 99.1451C78.0714 97.9779 76.1663 96.1565 75.9351 94.0934C75.7804 92.7162 76.4709 91.2569 77.3428 90.2315C78.7119 88.6213 81.0155 87.419 82.9001 86.5325C93.1986 81.6891 105.067 80.9652 116.25 80.1859ZM90.4587 94.2537C94.4367 92.4765 98.6103 91.1751 102.893 90.3759C107.65 89.4736 112.464 89.0699 117.292 88.7746C118.305 88.7124 120.134 88.6348 120.916 88.0084C121.176 86.5102 117.24 86.519 116.261 86.6338C107.858 87.259 99.6459 88.0316 91.6874 91.0087C90.1948 91.5668 86.4184 92.7141 86.5256 94.9544C86.5426 95.308 86.6973 95.3766 86.9493 95.5439C88.1247 95.698 89.4656 94.8522 90.4587 94.2537Z" fill="#37DBFF"/>
<path d="M75.9176 101.722C76.2668 101.942 77.2807 102.816 77.6651 103.121C78.7409 103.975 79.88 104.746 81.0724 105.428C98.8746 115.454 153.242 115.709 169.748 102.333C169.681 103.219 169.653 104.255 169.674 105.144C169.779 109.614 169.436 114.345 169.76 118.791C167.69 118.854 165.62 118.893 163.55 118.91L151.907 118.871C148.913 118.837 145.027 118.592 142.155 119.145C139.856 119.584 137.678 120.513 135.77 121.868C130.98 125.312 129.916 129.626 129.028 135.034L125.053 135.068C114.243 135.142 85.1845 133.35 77.5184 125.503C76.7865 124.754 76.304 123.962 76.0872 122.937C75.5309 120.308 75.8792 117.14 75.8988 114.438C75.9366 110.2 75.9428 105.961 75.9176 101.722Z" fill="#37DBFF"/>
<path d="M76.0919 185.41C76.4681 185.567 76.7508 185.947 77.0455 186.229C86.7469 195.533 116.184 196.664 129.27 196.441C129.076 198.252 129.163 201.581 129.184 203.495C129.263 210.961 128.67 213.319 132.917 219.543L132.804 219.706C129.832 219.729 126.86 219.72 123.888 219.681C112.725 219.466 85.9014 218.122 77.8104 209.575C77.112 208.837 76.4733 207.936 76.2094 206.945C75.59 204.617 75.9258 201.882 75.9284 199.495C75.9337 194.791 75.9366 190.112 76.0919 185.41Z" fill="#37DBFF"/>
<path d="M75.8909 129.554C77.7633 130.721 79.2592 132.488 81.5124 133.443C95.959 139.565 113.679 140.521 129.191 140.335C129.125 142.03 129.528 143.834 129.428 145.422C129.062 151.234 129.201 157.043 129.217 162.871C128.912 163.113 128.628 163.082 128.215 163.086C114.197 163.2 99.8634 162.533 86.4682 158.03C83.8763 157.159 76.7584 154.557 76.1663 151.403C75.7339 149.098 75.8859 144.864 75.9029 142.438C75.9492 138.143 75.9454 133.849 75.8909 129.554Z" fill="#37DBFF"/>
<path d="M75.925 157.26C81.1619 162.496 88.3349 164.344 95.4309 165.743C106.502 167.926 117.987 168.446 129.25 168.612C129.123 175.997 129.356 183.492 129.268 190.926L128.993 191.089C112.879 191.125 91.8763 190.741 77.8478 181.59C75.4141 180.002 75.9382 175.848 75.9532 173.197L76.0123 163.235C76.0223 161.376 76.138 159.068 75.925 157.26Z" fill="#37DBFF"/>
</svg>
