<svg width="300" height="300" viewBox="0 0 300 300" fill="none" xmlns="http://www.w3.org/2000/svg">
<rect width="300" height="300" fill="#2B2B2B"/>
<path d="M200.258 134.656C200.271 133.421 200.048 127.931 200.43 127.297C200.971 127.189 201.071 127.249 201.592 127.39C201.954 128.155 201.831 133.491 201.765 134.599C203.286 134.592 208.552 134.19 209.377 135.232C209.417 135.719 209.454 135.48 209.183 135.957C207.782 136.445 203.474 136.233 201.764 136.22C201.889 138.651 201.844 141.389 201.854 143.845C204.017 143.828 206.65 143.749 208.811 143.876C209.123 143.895 209.073 143.951 209.263 144.233C209.295 144.678 209.353 144.821 209.162 145.217C208.532 145.702 202.913 145.469 201.757 145.458C201.886 147.904 201.85 150.569 201.859 153.036C203.644 153.007 207.62 152.772 209.121 153.203L209.326 153.666C209.126 154.769 207.632 154.706 206.711 154.692C205.127 154.667 203.415 154.743 201.847 154.566L201.85 162.192C204.211 162.097 206.995 162.161 209.389 162.156C209.367 162.807 209.371 163.013 209.226 163.637C208.574 164.003 202.87 163.864 201.851 163.788C201.85 166.334 201.863 168.88 201.891 171.426C204.128 171.404 206.504 171.343 208.739 171.421C209.146 171.435 209.069 171.447 209.262 171.687C209.292 172.2 209.352 172.415 209.123 172.876C208.257 173.197 203.206 173.022 201.845 173.032L201.857 180.601L209.339 180.606C209.341 181.167 209.412 181.777 209.075 182.173C207.623 182.37 203.51 182.243 201.855 182.23C201.859 184.231 202.005 186.993 201.795 189.015C201.763 189.329 201.419 189.444 201.157 189.586C200.083 189.362 200.204 187.663 200.202 186.771C200.199 185.259 200.227 183.74 200.247 182.228C197.76 182.171 195.127 182.211 192.629 182.208C192.622 183.152 192.736 188.852 192.458 189.122C190.48 191.037 191.107 183.152 191.121 182.212C188.689 182.034 186.052 182.315 183.511 182.128C183.433 183.088 183.602 184.858 183.028 185.461C182.47 185.681 182.743 185.661 182.181 185.561C181.451 184.787 182.037 183.358 181.763 182.37C181.689 182.101 181.442 182.072 181.112 181.909C180.996 181.513 181.024 181.528 181.134 181.121C181.226 181.023 181.739 180.462 181.742 180.39C181.827 178.164 181.791 175.177 181.786 173.024C178.996 174.109 177.088 173.447 174.176 173.711C174.087 175.215 174.516 179.578 173.662 180.476C173.175 180.514 173.398 180.563 172.969 180.311C172.26 179.192 172.553 175.233 172.573 173.709C170.057 173.548 167.395 173.618 164.876 173.665C164.916 175.061 165.474 179.771 164.205 180.442C163.66 180.326 163.871 180.455 163.509 180.118C163.128 178.981 163.282 175.167 163.298 173.727C160.877 173.642 158.194 173.701 155.752 173.707C155.679 175.731 155.863 178.461 155.62 180.406C155.37 180.441 154.682 180.571 154.491 180.302C153.7 179.192 154.07 177.44 154.05 176.118C154.038 175.36 154.089 174.452 154.109 173.65C152.12 173.719 149.585 173.637 147.51 173.668C137.305 173.749 127.099 173.761 116.894 173.704L116.907 162.889L119.871 161.644C119.785 164.574 119.84 167.795 119.825 170.757C123.979 170.655 128.615 170.823 132.849 170.805L177.995 170.726C178.019 166.945 178.02 163.164 177.999 159.383L169.102 159.392C169.119 160.846 169.025 162.022 169.165 163.513L166.236 163.522C166.161 162.118 166.159 160.813 166.157 159.411C165.161 159.37 164.085 159.392 163.081 159.394C163.047 160.768 163.108 162.228 163.124 163.615C162.725 163.624 162.327 163.627 161.929 163.624C159.763 163.587 160.376 161.046 160.389 159.437C159.56 159.515 158.276 159.479 157.408 159.479L157.468 163.447L154.553 163.479C154.45 162.135 154.442 160.829 154.422 159.482C153.462 159.423 152.425 159.489 151.458 159.525L151.46 163.474L148.74 163.478C148.415 162.129 148.488 160.868 148.526 159.49C147.506 159.489 146.487 159.475 145.467 159.447C145.475 160.753 145.368 162.192 145.449 163.48L142.661 163.486C142.636 162.148 142.599 160.81 142.549 159.473C141.712 159.386 140.507 159.433 139.596 159.393C139.526 160.89 139.434 161.989 139.592 163.487L136.688 163.485L136.668 159.504L133.617 159.525C133.643 160.788 133.603 162.182 133.594 163.455L130.754 163.451C130.678 162.074 130.691 160.748 130.695 159.371L127.594 159.539L127.557 163.447C126.625 163.421 125.604 163.442 124.665 163.442L124.661 159.971C127.034 159.115 130.326 157.252 132.51 156.696C134.302 156.239 139.276 156.56 141.388 156.581C145.624 156.628 149.861 156.611 154.096 156.531L154.104 154.611C152.19 154.421 148.094 154.737 146.858 154.416C146.593 154.059 146.544 153.389 146.774 153.007C148.031 152.818 152.581 152.969 154.124 153.014C154.134 150.501 154.159 147.988 154.199 145.475C153.245 145.45 147.167 145.646 146.889 145.328C144.937 143.09 153.114 143.85 154.16 143.87L154.137 136.23L152.006 136.2C152.775 135.406 153.236 134.923 154.101 134.247C154.484 132.888 154.695 132.728 155.7 131.798L155.712 134.604C158.192 134.67 160.848 134.626 163.342 134.628C163.308 132.586 163.149 129.736 163.379 127.698C163.416 127.371 163.625 127.326 163.879 127.179C164.279 127.248 164.269 127.22 164.573 127.479C165.028 128.644 164.825 133.178 164.805 134.704C167.14 134.6 170.227 134.634 172.572 134.68C172.555 133.444 172.323 128.181 172.817 127.364C173.26 127.341 173.603 127.272 173.997 127.454C174.277 128.421 174.159 133.41 174.112 134.648C176.673 134.627 179.235 134.635 181.797 134.672C181.78 133.096 181.562 128.605 182.037 127.389C182.458 127.147 182.232 127.211 182.751 127.235C183.826 128.083 183.349 133.129 183.269 134.617L191.15 134.625C191.113 133.585 190.828 127.85 191.385 127.326C191.863 127.316 191.889 127.313 192.354 127.41C192.847 128.217 192.641 133.41 192.63 134.622C195.173 134.616 197.715 134.627 200.258 134.656ZM183.399 162.246C186.01 162.326 188.571 162.267 191.17 162.301L191.15 154.598C188.596 154.498 185.962 154.536 183.399 154.543V162.246ZM172.293 143.858L172.529 143.764C172.686 142.117 172.6 137.955 172.577 136.207C170.141 136.15 167.705 136.132 165.268 136.153L164.927 136.217C164.674 136.957 164.816 142.624 164.801 143.862L172.293 143.858ZM191.055 143.576L191.119 136.232C188.52 136.011 185.812 136.277 183.289 136.129C183.304 138.681 183.368 141.314 183.326 143.854C184.31 143.856 190.692 143.986 191.036 143.68L191.055 143.576ZM192.628 162.323L200.272 162.286C200.219 159.691 200.325 157.174 200.241 154.572L192.624 154.556C192.595 157.145 192.596 159.735 192.628 162.323ZM191.128 153.091C191.131 150.597 191.175 147.965 191.104 145.483C188.536 145.459 185.968 145.45 183.399 145.456C183.398 147.974 183.367 150.552 183.401 153.065C185.902 153.072 188.649 153.019 191.128 153.091ZM174.167 143.947C176.104 143.753 179.728 143.847 181.804 143.826C181.881 141.196 181.923 138.846 181.791 136.214L174.168 136.15L174.167 143.947ZM200.235 153.082C200.252 150.546 200.255 148.011 200.242 145.475L192.636 145.453L192.632 153.078L200.235 153.082ZM183.404 180.583C185.989 180.621 188.575 180.614 191.16 180.561C191.184 178.045 191.162 175.529 191.095 173.015C188.573 173.016 185.979 173.049 183.463 173.007C183.427 175.333 183.536 178.39 183.404 180.583ZM163.313 153.033C163.281 150.517 163.265 148.002 163.267 145.487L155.636 145.449C155.709 147.977 155.733 150.507 155.709 153.037L163.313 153.033ZM183.399 171.474C185.856 171.458 188.603 171.38 191.037 171.45C191.059 168.882 191.066 166.314 191.058 163.747L183.392 163.745L183.399 171.474ZM164.834 153.005L169.092 152.934C170.138 152.969 171.101 152.995 172.146 152.978L172.429 153.002C172.709 152.507 172.58 146.513 172.575 145.478L164.834 145.5C164.777 147.961 164.82 150.536 164.834 153.005ZM163.267 154.55L155.722 154.545L155.769 156.58C157.197 156.586 162.201 156.691 163.309 156.544C163.289 155.922 163.245 155.161 163.267 154.55ZM181.792 162.421L181.788 154.541L174.186 154.553L174.171 156.542C176.349 156.555 178.713 156.524 180.876 156.602C180.875 157.797 180.713 161.294 181.091 162.181C181.422 162.368 181.414 162.353 181.792 162.421ZM192.632 143.825C195.168 143.847 197.704 143.85 200.24 143.835C200.243 141.317 200.274 138.748 200.246 136.235C198.88 136.232 193.783 136.314 192.629 136.153C192.636 138.67 192.685 141.319 192.632 143.825ZM200.336 173.009L192.564 173.012C192.612 175.543 192.626 178.075 192.604 180.607C193.465 180.612 199.794 180.73 200.286 180.552C200.202 178.008 200.41 175.544 200.336 173.009ZM172.577 154.586C170.019 154.53 167.35 154.653 164.86 154.583C164.839 155.218 164.8 155.922 164.817 156.551L172.583 156.573L172.577 154.586ZM200.244 171.407L200.249 163.799C197.707 163.765 195.166 163.754 192.624 163.768L192.625 171.414C195.143 171.411 197.732 171.374 200.244 171.407ZM155.708 136.22C155.687 138.768 155.689 141.316 155.711 143.863C157.038 143.856 162.304 144.032 163.291 143.799C163.196 141.287 163.44 138.753 163.267 136.243C160.747 136.211 158.228 136.203 155.708 136.22ZM181.847 171.433C181.899 170.294 182.006 164.637 181.703 163.818C181.425 163.74 181.16 163.662 180.878 163.598C180.85 165.073 180.646 170.163 181.131 171.25C181.543 171.504 181.318 171.426 181.847 171.433ZM174.171 145.455C174.169 147.948 174.128 150.553 174.174 153.036C176.687 153.048 179.315 153.1 181.818 153.058L181.798 145.481L174.171 145.455Z" fill="#37DBFF"/>
<path d="M163.79 85.2938C164.863 85.2419 165.882 85.2132 166.907 85.5912C169.368 86.4985 177.26 93.8377 178.318 96.2834C178.95 97.7444 178.921 99.3771 178.303 100.837C177.913 101.758 177.341 102.466 176.697 103.218C173.101 107.421 169.256 111.486 165.492 115.541L147.969 134.457L136.752 146.525C135.009 148.416 133.118 150.866 131.197 152.499C130.15 153.39 127.323 154.39 125.93 154.977L119.26 157.809C116.033 159.106 112.844 160.493 109.695 161.968C108.925 161.451 108.498 161.111 107.913 160.4C109.384 153.174 111.821 144.616 113.87 137.494C113.93 137.282 118.007 132.982 118.492 132.458L129.151 120.864L150.461 97.6281C152.644 95.2583 154.768 92.8465 156.934 90.4627C158.929 88.2668 160.721 85.8399 163.79 85.2938ZM122.631 141.91C123.574 142.836 124.631 143.911 125.7 144.669L159.076 108.177C158.227 107.23 157.247 106.255 156.243 105.471C149.06 113.186 141.917 120.94 134.817 128.731C132.464 131.295 130.096 133.845 127.714 136.383C126.095 138.102 124.105 140.1 122.631 141.91ZM130.463 149.022C138.05 140.862 145.594 132.663 153.094 124.424C156.649 120.526 160.324 116.299 163.927 112.509C163.466 112.062 161.893 110.485 161.456 110.276C155.171 116.862 149.149 123.707 142.918 130.326C139.619 133.834 136.347 137.368 133.103 140.927C131.979 142.151 128.867 145.412 128.108 146.685C128.352 147.332 129.805 148.877 130.463 149.022ZM120.485 139.836C123.302 136.452 127.047 132.631 130.067 129.346L144.027 114.106C147.304 110.55 150.753 106.93 153.939 103.314C153.369 102.698 152.262 101.431 151.492 101.178C148.456 104.26 145.779 107.322 142.873 110.5L132.217 122.022L122.949 132.084C121.369 133.802 119.277 135.95 117.84 137.719C118.712 138.437 119.594 139.142 120.485 139.836ZM158.146 93.8054C161.869 97.1719 166.143 101.51 169.864 104.624C170.233 104.958 170.324 105.172 170.715 105.205C172.295 103.862 175.684 100.459 175.689 98.4132C175.695 96.4105 170.639 92.601 169.22 91.0577C167.989 89.7194 166.302 88.4154 164.554 88.2159C161.706 88.9539 160.112 91.687 158.146 93.8054ZM115.229 156.336C114.341 155.441 113.564 154.739 112.614 153.906C112.293 155.067 111.735 156.809 111.505 157.928C112.224 157.664 112.79 157.458 113.488 157.125C114.002 156.902 114.759 156.601 115.229 156.336ZM113.373 150.73C114.986 152.137 116.804 153.802 118.453 155.146C119.674 154.357 121.804 153.512 123.207 152.924C124.841 152.235 126.396 151.566 128.086 151.014C124.147 147.366 120.099 143.823 116.146 140.186L113.373 150.73ZM156.051 96.0847C155.136 97.06 154.394 97.8422 153.673 98.9769C157.438 101.969 160.865 105.288 164.329 108.612C164.907 109.167 165.572 109.879 166.188 110.362C166.915 109.442 167.828 108.51 168.471 107.637C164.551 103.978 160.087 99.5259 156.051 96.0847Z" fill="#37DBFF"/>
<path d="M163.261 93.678L163.634 93.9818L163.615 94.5135C163.783 94.8214 163.717 94.6609 163.695 95.0746L163.188 94.8223C163.037 94.1705 163.03 94.1798 163.261 93.678Z" fill="#2B2B2B"/>
<path d="M115.283 181.699C118.022 181.596 121.691 181.752 124.534 181.753L145.868 181.766L167.311 181.763C171.705 181.743 176.097 181.587 180.496 181.695C180.622 185.103 180.256 189.895 180.607 193.09C179.642 193.059 178.623 193.068 177.653 193.06C177.472 190.581 177.566 187.143 177.564 184.583C173.219 184.612 168.831 184.561 164.497 184.634C164.45 186.932 164.433 189.23 164.446 191.528C164.435 196.775 164.454 202.022 164.503 207.269C167.756 207.116 167.97 207.001 167.723 210.319C163.09 209.857 156.083 210.17 151.356 210.142L113.809 210.199C113.629 207.3 113.787 204.195 113.778 201.266L113.684 181.814L115.283 181.699ZM145.733 184.589L132.571 184.582C132.575 192.032 132.696 199.807 132.566 207.229C133.618 207.182 134.625 207.18 135.676 207.22C139.035 207.35 142.409 207.224 145.768 207.28C145.718 199.717 145.706 192.153 145.733 184.589ZM148.676 207.254C152.475 207.237 158.014 207.099 161.684 207.343C161.453 204.308 161.685 201.239 161.682 198.222C161.678 193.728 161.769 189.076 161.654 184.592L148.559 184.574C148.552 191.886 148.435 200.045 148.676 207.254ZM116.673 207.287C120.552 207.27 125.832 207.066 129.588 207.234C129.765 206.833 129.617 186.93 129.644 184.595L116.633 184.591C116.663 191.892 116.812 200.034 116.673 207.287Z" fill="#37DBFF"/>
<path d="M177.406 195.98C182.231 195.12 186.84 198.331 187.705 203.155C188.571 207.979 185.364 212.592 180.541 213.461C175.711 214.333 171.09 211.121 170.224 206.29C169.358 201.459 172.574 196.842 177.406 195.98ZM180.195 210.399C183.3 209.744 185.304 206.718 184.694 203.604C184.085 200.49 181.087 198.443 177.965 199.008C175.905 199.38 174.205 200.834 173.516 202.811C172.828 204.788 173.258 206.983 174.641 208.555C176.024 210.126 178.147 210.831 180.195 210.399Z" fill="#37DBFF"/>
<path d="M90.6553 166.409C96.8316 166.471 103.09 166.427 109.269 166.408L109.282 169.444C107.895 169.343 104.952 169.466 103.407 169.468L90.6737 169.488L90.6553 166.409Z" fill="#37DBFF"/>
<path d="M172.308 162.212C174.002 161.738 175.762 162.719 176.251 164.409C176.74 166.099 175.776 167.868 174.09 168.372C172.383 168.883 170.586 167.903 170.091 166.192C169.596 164.48 170.591 162.692 172.308 162.212Z" fill="#37DBFF"/>
<path d="M97.6033 159.527C99.5246 159.606 101.351 159.602 103.274 159.595C103.264 160.562 103.184 161.637 103.132 162.612C101.589 162.583 99.1841 162.533 97.7079 162.727C97.6176 161.758 97.6645 160.57 97.6033 159.527Z" fill="#37DBFF"/>
</svg>
