<svg width="300" height="300" viewBox="0 0 300 300" fill="none" xmlns="http://www.w3.org/2000/svg">
<rect width="300" height="300" fill="#2B2B2B"/>
<path d="M152.923 116.063C154.849 115.998 162.153 115.437 163.057 117.042C162.671 119.412 160.136 125.237 159.139 127.716L152.723 143.879C150.132 150.474 147.697 157.15 145.144 163.761C143.781 167.292 142.493 171.076 141.01 174.536C139.829 174.781 132.632 174.791 131.511 174.218C130.974 173.251 131.379 171.581 131.733 170.589C133.486 165.684 135.377 160.76 137.261 155.905L146.583 131.963C147.601 129.348 151.803 117.501 152.923 116.063ZM133.978 171.997C135.11 171.975 138.408 172.037 139.293 171.938C139.892 169.821 141.163 166.784 141.972 164.671L146.253 153.404C150.666 141.721 155.235 130.097 159.959 118.537L154.491 118.514C153.106 122.592 151.369 126.909 149.84 130.975L133.978 171.997Z" fill="#37DBFF"/>
<path d="M167.815 127.5C168.472 127.577 169.031 127.701 169.625 128.006C174.712 130.612 179.749 133.462 184.791 136.156L193.597 140.815C195.311 141.739 197.696 142.983 199.202 144.158C199.213 146.363 199.388 149.469 198.96 151.589C198.843 152.169 198.216 152.646 197.717 152.954C195.098 154.57 192.184 156.025 189.465 157.497L175.585 165.113C166.427 170.034 166.779 170.809 167.139 159.32C168.802 157.576 172.418 155.957 174.642 154.771L182.448 150.545C183.919 149.762 185.437 149.061 186.866 148.217C183.481 146.412 180.069 144.486 176.693 142.647C173.944 141.149 169.592 139.017 167.153 137.139C166.995 134.804 166.982 130.796 167.251 128.406C167.277 128.174 167.654 127.698 167.815 127.5ZM169.647 160.494C169.641 162.127 169.685 163.761 169.779 165.393C170.78 164.829 172.22 163.955 173.211 163.467L188.964 154.842C190.879 153.786 194.899 151.713 196.59 150.594L196.474 145.414C188.284 141.26 180.279 136.568 172.146 132.287C171.363 131.874 170.426 131.367 169.699 130.866C169.679 132.324 169.594 134.267 169.68 135.689C176.127 139.668 183.164 143.055 189.812 146.702C190.618 147.144 191.08 147.688 190.883 148.642C190.102 149.503 188.458 150.256 187.411 150.817C183.956 152.67 180.543 154.588 177.091 156.449C174.65 157.765 171.975 159.002 169.647 160.494Z" fill="#37DBFF"/>
<path d="M125.045 127.297C125.732 127.264 126.146 127.266 126.685 127.719C127.231 128.584 126.979 135.156 126.964 136.655C125.505 138.036 120.428 140.679 118.343 141.824L107.641 147.725C110.518 149.166 113.648 151.017 116.513 152.583C119.82 154.391 123.929 156.44 126.99 158.521C126.989 160.163 127.185 166.351 126.948 167.53C126.709 167.931 126.227 168.044 125.764 168.235C124.2 167.81 121.229 166.017 119.736 165.178C117.231 163.869 96.609 152.796 95.9882 151.998C95.2068 150.993 95.3855 145.332 95.7418 144.056C95.9009 143.487 96.3593 143.22 96.8222 142.906C99.2794 141.238 102.189 139.947 104.795 138.503C111.538 134.767 118.361 131.136 125.045 127.297ZM98.1438 145.251C98.1022 147.002 98.0512 148.457 98.1857 150.206C100.314 151.62 102.941 152.876 105.178 154.151C110.315 157.08 115.827 159.8 120.905 162.797C122.125 163.491 123.334 164.204 124.53 164.938L124.545 159.928C121.916 158.53 104.132 149.184 103.859 148.342C103.719 147.911 103.744 147.65 103.867 147.226C105.197 145.612 121.552 137.198 124.529 135.387C124.536 134.604 124.604 131.175 124.477 130.577C118.753 133.625 113.122 136.809 107.487 140.013C104.473 141.727 101.034 143.398 98.1438 145.251Z" fill="#37DBFF"/>
<path d="M173.607 178.625C177.336 178.241 176.446 181.497 176.109 184.076C175.164 184.228 174.061 184.241 173.091 184.281C172.306 187.535 173.443 188.358 171.535 191.428C173.655 194.391 172.314 195.507 173.431 198.522C173.599 198.974 175.713 198.776 175.882 199.351C177.435 204.643 175.497 205.105 170.943 204.097C166.233 202.327 166.833 199.852 166.525 195.724C165.64 194.323 164.812 194.236 163.231 193.674C163.16 191.638 162.596 188.376 165.168 188.682C166.042 188.738 166.427 187.563 166.47 186.907C166.836 181.376 167.097 179.213 173.607 178.625ZM169.202 183.218C169.167 184.082 169.105 185.141 169.094 185.99C169.052 189.366 168.43 190.151 165.442 191.444C165.813 192.021 167.534 192.377 167.951 192.865C169.342 194.493 169.199 197.697 169.2 199.693C170.053 200.764 170.29 201.078 171.59 201.607L171.782 201.688C171.821 201.703 171.859 201.718 171.898 201.734C172.618 201.832 172.988 201.939 173.693 201.754L173.812 201.54C172.731 200.932 171.096 200.733 170.733 199.521C170.243 197.889 170.747 195.559 170.097 194.028C169.758 193.228 168.654 192.299 168.125 191.377C172.352 187.123 168.98 186.673 170.941 182.943L171.096 182.845C171.844 182.378 172.948 181.959 173.458 181.535L173.418 181.327C173.068 181.236 173.054 181.213 172.699 181.233C171.033 181.663 170.302 181.82 169.202 183.218Z" fill="#37DBFF"/>
<path d="M190.134 178.589C193.774 178.461 197.906 179.099 198.452 183.514C198.637 185.011 198.343 186.555 199.04 187.961C199.698 189.288 201.141 188.38 201.88 189.483C202.35 190.232 202.237 192.272 202.08 193.141C201.807 194.644 200.021 193.997 199.281 194.62C197.9 195.784 198.53 198.663 198.104 200.304C197.642 202.084 197.139 202.585 195.723 203.488C195.352 203.658 194.973 203.811 194.587 203.945C193.462 204.336 190.91 204.68 189.783 204.136C188.345 203.443 188.662 200.149 189.386 199.022C190.774 198.374 192.34 199.732 192.256 196.604C192.197 194.413 192.444 193.365 193.568 191.506C191.921 189.137 192.549 187.304 191.918 184.612L191.868 184.398C191.149 184.313 189.341 184.303 189.115 183.511C188.758 182.255 188.809 180.523 189.194 179.266C189.314 178.875 189.792 178.722 190.134 178.589ZM193.914 182.528C196.177 186.6 192.756 186.931 197.144 191.594C193.036 195.441 195.806 195.707 194.045 200.036C193.861 200.488 191.62 201.226 191.344 201.69C191.888 202.003 192.551 201.84 193.179 201.736C199.201 200.3 192.295 194.12 199.752 191.736C198.292 190.887 196.586 190.13 196.271 188.324C195.673 184.89 197.06 181.048 191.957 181.14L191.352 181.227L191.273 181.444C191.885 181.916 192.942 181.944 193.914 182.528Z" fill="#37DBFF"/>
<path d="M185.857 178.082C186.279 178.059 186.685 178.051 187.057 178.289C187.348 178.476 187.542 178.711 187.591 179.062C187.672 179.648 180.911 202.175 180.166 203.982C180.036 204.296 179.831 204.551 179.602 204.798C178.859 204.845 178.573 204.887 178.004 204.448C177.642 203.777 178.273 201.312 178.547 200.669C180.082 197.073 184.022 179.774 185.857 178.082Z" fill="#37DBFF"/>
</svg>
