<svg width="1024" height="1024" viewBox="0 0 1024 1024" fill="none" xmlns="http://www.w3.org/2000/svg">
<rect width="1024" height="1024" rx="96" fill="#232626"/>
<path d="M791.998 203.481C793.515 203.5 797.478 203.583 798.771 203.155C810.904 199.142 820.95 188.43 832.843 184.03C834.075 183.575 834.496 184.122 835.434 184.712C838.872 192.369 807.273 219.666 799.812 223.157C787.137 229.089 776.493 239.355 765.54 247.845C753.79 256.802 741.768 265.396 729.491 273.617C719.918 280.15 710.432 286.879 700.19 292.338C672.433 307.132 597.684 335.385 581.9 358.399C574.558 369.102 571.961 384.953 569.958 397.644C563.645 437.649 573.91 477.519 585.509 515.519L580.912 518.459C581.575 580.948 572.268 643.693 562.468 705.322L536.608 861.71C544.989 870.28 549.263 875.826 553.927 887.157L506.024 887.081C499.919 887.104 492.541 887.583 486.719 887.382C490.402 874.576 494.955 870.163 504.771 861.08C503.605 856.892 502.851 851.782 501.877 847.368C499.459 836.789 497.165 826.181 494.993 815.548C491.079 796.539 486.675 777.399 482.595 758.385L463.867 668.776C454.051 622.253 441.079 566.415 444.502 519.037C442.884 517.65 441.171 516.117 439.487 514.834C441.189 504.586 444.889 491.999 447.242 481.603C454.674 448.762 458.598 416.377 449.912 383.351C448.41 377.643 444.763 363.943 441.387 359.967C421.152 336.135 377.485 319.178 350.148 306.07C339.355 300.952 328.801 295.343 318.522 289.26C299.164 278.009 280.517 265.578 262.685 252.038C248.093 241.013 236.138 229.538 219.714 220.933C214.61 218.258 207.312 207.867 202.73 203.752C199.324 200.123 188.561 191.334 188.837 186.826C192.975 182.587 204.225 191.269 207.797 193.985C215.718 200.009 221.681 203.032 230.923 205.284C233.634 205.944 244.017 218.428 247.458 219.866C258.427 227.569 271.126 234.415 283.017 240.428C296.817 247.353 310.772 253.964 324.872 260.257C333.337 264.124 349.338 271.838 358.05 273.751C377.119 277.938 395.15 279.405 414.564 284.049C435.179 288.98 457.163 297.092 478.226 298.657C480.156 298.801 489.214 296.259 494.082 295.893L493.969 284.162C488.56 283.479 482.171 282.528 477.626 279.351L477.23 278.578C474.573 273.454 472.98 277.52 471.085 272.837C471.859 271.721 471.342 272.198 473.154 271.842C472.603 268.899 468.151 268.709 466.829 264.823C470.142 267.785 473.697 266.215 474.985 262.251C473.87 261.53 474.303 261.995 473.665 260.874C471.611 252.038 471.591 254.617 474.775 247.219C474.08 246.139 474.325 246.46 473.356 245.604C473.445 243.301 473.961 243.272 475.688 241.787C476.391 238.203 476.108 234.622 476.759 231.113C478.339 222.606 483.567 215.53 490.565 210.679C506.496 199.634 533.327 202.911 543.954 219.848C547.834 226.033 548.594 232.457 548.558 239.729C552.732 245.147 549.477 245.611 553.147 250.217C553.938 253.865 547.836 258.447 552.641 261.818C554.222 262.927 555.413 262.656 556.27 264.512C556.365 266.812 556.628 265.796 555.644 267.716C553.134 269.611 550.357 269.721 549.143 271.079C550.935 273.246 551.495 272.415 552.066 274.551C550.703 276.058 550.287 275.726 548.147 275.676C547.529 278.267 547.607 279.284 545.227 280.679C541.5 282.865 534.396 283.804 530.125 284.111C530.087 288.195 530.003 292.357 530.027 296.433L530.967 296.42C537.052 296.375 542.544 298.907 548.614 298.453C567.011 297.08 585.448 290.22 603.324 285.946C623.936 281.019 645.4 279.639 665.789 273.801C686.854 267.769 770.217 226.406 785.782 211.414C788.192 209.093 789.763 205.969 791.998 203.481ZM530.71 815.819C533.597 792.47 538.724 768.982 542.289 745.738C552.138 681.539 564.288 617.203 568.099 552.297C568.376 547.562 569.094 533.226 567.711 529.324C562.563 542.756 557.551 558.299 553.003 572.019C544.811 596.731 534.865 625.772 532.381 651.827C531.235 663.842 531.897 684.533 531.944 696.998L531.509 767.361C531.422 773.132 529.514 813.189 530.71 815.819ZM509.022 749.106C509.331 750.968 509.606 752.837 509.847 754.709C510.236 744.79 509.864 734.927 509.897 724.981C510.037 683.913 508.116 642.917 508.564 601.843C508.616 597.052 508.644 585.116 507.614 580.842L507.576 581.496C507.233 586.849 506.269 592.707 505.633 598.091C504.442 608.699 503.318 619.313 502.262 629.935C501.409 638.336 500.03 648.198 500.408 656.57C501.797 687.321 507.854 718.345 509.022 749.106ZM515.042 226.819C522.391 234.124 532.701 245.196 543.894 239.138C544.953 237.586 545.164 237.872 544.938 236.497C541.616 235.003 535.505 236.363 531.581 235.329C526.556 234.005 519.594 227.821 515.042 226.819ZM533.833 310.512L537.781 306.782C514.285 314.602 509.509 315.458 485.742 306.588C488.567 310.771 493.672 314.122 498.215 316.173C510 321.493 523.923 318.383 533.833 310.512ZM535.573 258.44C530.261 266.143 525.283 273.094 515.251 275.081C509.564 276.19 503.67 274.935 498.928 271.605C495.914 269.528 487.937 259.969 487.675 259.869C487.766 261.21 487.771 261.136 488.323 262.371C492.514 269.967 497.95 275.567 506.45 278.163C517.351 281.492 532.753 271.631 535.418 260.745C535.616 259.937 535.779 259.262 535.573 258.44ZM568.476 507.983C558.042 469.713 548.77 435.294 557.834 395.737C558.727 391.84 562.704 373.65 561.908 371.468C543.379 412.885 539.839 438.916 556.888 482.936C559.1 488.65 562.464 497.408 565.436 502.578C566.409 504.357 567.408 506.272 568.476 507.983ZM359.89 284.132C363.266 285.547 384.65 290.308 389.717 291.578L437.511 303.685C441.927 304.797 454.816 308.422 458.423 308.53C432.651 300.018 405.111 291.482 378.442 286.691C373.373 285.78 364.943 284.267 359.89 284.132ZM662.165 284.672C633.721 288.784 605.696 295.408 578.421 304.465C575.528 305.397 567.469 307.728 565.461 309.355C566.701 309.743 566.096 309.604 567.618 309.225L636.962 291.257C642.578 289.856 648.214 288.531 653.867 287.285C656.413 286.728 662.44 285.597 664.653 284.744C663.383 284.464 663.406 284.377 662.165 284.672Z" fill="#4CCCD0"/>
<path d="M234.39 247.734C239.084 250.448 245.962 256.074 250.287 259.534C214.295 305.855 190.908 360.705 182.403 418.745C168.719 508.732 191.841 600.44 246.552 673.183C290.179 731.374 352.294 773.003 422.701 791.235C442.962 796.513 455.359 797.678 475.822 800.74C478.668 816.774 483.896 835.41 487.696 851.452L477.003 850.306C465.694 849.019 454.302 847.713 443.116 845.599C383.987 834.757 328.653 808.853 282.455 770.388C273.8 763.117 263.682 754.327 255.801 746.419C195.162 685.464 158.15 604.949 151.369 519.237C143.131 424.143 172.628 321.096 234.39 247.734Z" fill="#4CCCD0"/>
<path d="M787.04 245.81C790.037 246.83 800.103 261.243 802.381 264.361C834.869 308.084 857.203 358.498 867.758 411.937C886.931 509.755 866.329 611.18 810.512 693.765C769.243 755.675 703.15 806.078 633.255 831.355C612.274 838.943 589.001 844.018 567.112 848.39C562.531 849.129 558.451 849.841 553.903 850.818L561.745 798.731C573.124 796.39 583.605 795.21 595.574 792.422C633.883 783.471 670.137 767.308 702.401 744.797C774.661 695.022 824.081 618.479 839.703 532.136C853.55 456.919 841.921 379.231 806.655 311.365C799.75 298.379 792.127 285.786 783.823 273.646C780.055 268.174 775.933 262.994 772.161 257.537C775.809 253.884 782.746 248.985 787.04 245.81Z" fill="#4CCCD0"/>
<path d="M617.294 355.2C623.35 358.486 637.373 369.287 643.634 373.736L691.868 407.417L778.254 467.816C792.941 478.054 812.088 490.741 826.111 501.392C814.825 508.892 803.346 517.663 792.332 525.696L751.802 554.712L701.038 590.858C691.455 597.661 680.53 605.09 671.265 612.198C665.634 615.71 657.229 622.236 651.666 626.279C640.117 634.729 628.467 643.039 616.718 651.208C617.714 630.176 617.057 605.546 616.946 584.256C631.512 575.2 647.452 562.889 661.6 552.675L732.264 502.2C720.447 492.581 700.708 479.582 687.901 470.794C670.502 458.83 653.229 446.685 636.085 434.36C629.874 429.96 623.285 425.688 617.214 421.285C616.806 415.074 617.108 404.405 617.098 397.88C616.977 383.653 617.042 369.425 617.294 355.2Z" fill="#4CCCD0"/>
<path d="M404.53 355.352L405.459 355.766C405.838 361.302 405.466 371.305 405.485 377.214L405.643 420.209C399.759 425.962 381.405 438.304 373.983 443.404L322.757 479.285C314.004 485.397 298.301 495.73 290.66 502.366C304.555 511.771 317.932 521.854 331.763 531.349C356.817 548.55 381.295 566.653 406.34 583.866C405.266 603.746 405.909 629.383 406.043 649.621C387.967 637.49 370.193 624.914 352.737 611.906C323.511 591.238 294.731 569.624 265.541 549.197L224.239 520.612C215.194 514.405 205.299 507.909 196.666 501.277C198.705 499.568 200.807 498.055 203.037 496.611C220.772 485.125 238.001 472.915 255.272 460.737L404.53 355.352Z" fill="#4CCCD0"/>
<path d="M537.696 133.24C545.278 133.085 559.905 134.565 567.443 135.461C620.821 142.037 671.841 161.326 716.218 191.708C729.663 200.748 740.144 208.318 751.852 219.312L743.229 223.881C740.481 225.281 737.759 226.73 735.063 228.229C692.195 185.401 627.677 150.779 568.313 138.607C558.79 136.655 543.564 133.895 534.088 133.813L534.898 133.765C535.657 133.107 536.418 133.317 537.696 133.24Z" fill="#4CCCD0"/>
<path d="M486.685 132.781C488.576 132.506 489.876 132.146 491.725 132.608C490.899 133.389 489.678 133.635 488.547 133.738C425.226 139.514 363.587 166.591 313.962 205.924C305.344 212.754 297.005 220.04 288.661 227.226C285.903 226.439 283.513 225.37 280.872 224.272C278.257 223.155 274.643 221.156 272.03 219.803C313.937 179.574 380.965 148.472 437.91 138.122C448.538 136.23 459.248 134.83 470.005 133.927C474.694 133.543 482.435 133.575 486.685 132.781Z" fill="#4CCCD0"/>
<path d="M473.665 260.874C474.303 261.995 473.87 261.53 474.985 262.251C473.697 266.215 470.142 267.785 466.829 264.823C469.355 262.464 470.488 262.21 473.665 260.874Z" fill="#4CCCD0"/>
</svg>
